<mxfile host="app.diagrams.net" modified="2022-04-26T08:53:39.909Z" agent="5.0 (Windows NT 10.0; Win64; x64) AppleWebKit/537.36 (KHTML, like Gecko) Chrome/100.0.4896.127 Safari/537.36 Edg/100.0.1185.50" etag="6_8UUDGB9dGGHUTGc1jA" version="17.4.6" type="github">
  <diagram id="mQ4pANM2Xcrk_n10jxO5" name="Page-1">
    <mxGraphModel dx="1038" dy="579" grid="1" gridSize="10" guides="1" tooltips="1" connect="1" arrows="1" fold="1" page="1" pageScale="1" pageWidth="850" pageHeight="1100" math="0" shadow="0">
      <root>
        <mxCell id="0" />
        <mxCell id="1" parent="0" />
        <mxCell id="B1KMPoHkWrvq6i-juj9b-3" value="" style="edgeStyle=orthogonalEdgeStyle;rounded=0;orthogonalLoop=1;jettySize=auto;html=1;" edge="1" parent="1" source="B1KMPoHkWrvq6i-juj9b-1" target="B1KMPoHkWrvq6i-juj9b-2">
          <mxGeometry relative="1" as="geometry" />
        </mxCell>
        <mxCell id="B1KMPoHkWrvq6i-juj9b-7" value="" style="edgeStyle=orthogonalEdgeStyle;rounded=0;orthogonalLoop=1;jettySize=auto;html=1;" edge="1" parent="1" source="B1KMPoHkWrvq6i-juj9b-1" target="B1KMPoHkWrvq6i-juj9b-6">
          <mxGeometry relative="1" as="geometry" />
        </mxCell>
        <mxCell id="B1KMPoHkWrvq6i-juj9b-16" style="edgeStyle=orthogonalEdgeStyle;rounded=0;orthogonalLoop=1;jettySize=auto;html=1;" edge="1" parent="1" source="B1KMPoHkWrvq6i-juj9b-1" target="B1KMPoHkWrvq6i-juj9b-12">
          <mxGeometry relative="1" as="geometry" />
        </mxCell>
        <mxCell id="B1KMPoHkWrvq6i-juj9b-18" value="" style="edgeStyle=orthogonalEdgeStyle;rounded=0;orthogonalLoop=1;jettySize=auto;html=1;" edge="1" parent="1" source="B1KMPoHkWrvq6i-juj9b-1" target="B1KMPoHkWrvq6i-juj9b-17">
          <mxGeometry relative="1" as="geometry" />
        </mxCell>
        <mxCell id="B1KMPoHkWrvq6i-juj9b-1" value="start" style="rounded=1;whiteSpace=wrap;html=1;" vertex="1" parent="1">
          <mxGeometry x="320" y="30" width="120" height="60" as="geometry" />
        </mxCell>
        <mxCell id="B1KMPoHkWrvq6i-juj9b-5" value="" style="edgeStyle=orthogonalEdgeStyle;rounded=0;orthogonalLoop=1;jettySize=auto;html=1;" edge="1" parent="1" source="B1KMPoHkWrvq6i-juj9b-2" target="B1KMPoHkWrvq6i-juj9b-4">
          <mxGeometry relative="1" as="geometry" />
        </mxCell>
        <mxCell id="B1KMPoHkWrvq6i-juj9b-2" value="IF game schema undefined" style="rhombus;whiteSpace=wrap;html=1;rounded=1;" vertex="1" parent="1">
          <mxGeometry x="140" y="20" width="80" height="80" as="geometry" />
        </mxCell>
        <mxCell id="B1KMPoHkWrvq6i-juj9b-4" value="return" style="whiteSpace=wrap;html=1;rounded=1;" vertex="1" parent="1">
          <mxGeometry x="120" y="130" width="120" height="60" as="geometry" />
        </mxCell>
        <mxCell id="B1KMPoHkWrvq6i-juj9b-9" value="" style="edgeStyle=orthogonalEdgeStyle;rounded=0;orthogonalLoop=1;jettySize=auto;html=1;" edge="1" parent="1" source="B1KMPoHkWrvq6i-juj9b-6" target="B1KMPoHkWrvq6i-juj9b-8">
          <mxGeometry relative="1" as="geometry" />
        </mxCell>
        <mxCell id="B1KMPoHkWrvq6i-juj9b-6" value="FOR all arrived agent&amp;nbsp;" style="rhombus;whiteSpace=wrap;html=1;rounded=1;" vertex="1" parent="1">
          <mxGeometry x="340" y="110" width="80" height="80" as="geometry" />
        </mxCell>
        <mxCell id="B1KMPoHkWrvq6i-juj9b-11" value="" style="edgeStyle=orthogonalEdgeStyle;rounded=0;orthogonalLoop=1;jettySize=auto;html=1;" edge="1" parent="1" source="B1KMPoHkWrvq6i-juj9b-8" target="B1KMPoHkWrvq6i-juj9b-10">
          <mxGeometry relative="1" as="geometry" />
        </mxCell>
        <mxCell id="B1KMPoHkWrvq6i-juj9b-8" value="IF agent schema has data" style="rhombus;whiteSpace=wrap;html=1;rounded=1;" vertex="1" parent="1">
          <mxGeometry x="340" y="210" width="80" height="80" as="geometry" />
        </mxCell>
        <mxCell id="B1KMPoHkWrvq6i-juj9b-10" value="delete the schema data" style="whiteSpace=wrap;html=1;rounded=1;" vertex="1" parent="1">
          <mxGeometry x="320" y="330" width="120" height="60" as="geometry" />
        </mxCell>
        <mxCell id="B1KMPoHkWrvq6i-juj9b-12" value="FOR all arrived pop agent&amp;nbsp;" style="rhombus;whiteSpace=wrap;html=1;rounded=1;" vertex="1" parent="1">
          <mxGeometry x="490" y="110" width="80" height="80" as="geometry" />
        </mxCell>
        <mxCell id="B1KMPoHkWrvq6i-juj9b-13" value="" style="edgeStyle=orthogonalEdgeStyle;rounded=0;orthogonalLoop=1;jettySize=auto;html=1;" edge="1" parent="1" source="B1KMPoHkWrvq6i-juj9b-14" target="B1KMPoHkWrvq6i-juj9b-15">
          <mxGeometry relative="1" as="geometry" />
        </mxCell>
        <mxCell id="B1KMPoHkWrvq6i-juj9b-14" value="IF agent schema has pop data" style="rhombus;whiteSpace=wrap;html=1;rounded=1;" vertex="1" parent="1">
          <mxGeometry x="490" y="210" width="80" height="80" as="geometry" />
        </mxCell>
        <mxCell id="B1KMPoHkWrvq6i-juj9b-15" value="delete the schema data" style="whiteSpace=wrap;html=1;rounded=1;" vertex="1" parent="1">
          <mxGeometry x="470" y="330" width="120" height="60" as="geometry" />
        </mxCell>
        <mxCell id="B1KMPoHkWrvq6i-juj9b-20" value="" style="edgeStyle=orthogonalEdgeStyle;rounded=0;orthogonalLoop=1;jettySize=auto;html=1;" edge="1" parent="1" source="B1KMPoHkWrvq6i-juj9b-17" target="B1KMPoHkWrvq6i-juj9b-19">
          <mxGeometry relative="1" as="geometry" />
        </mxCell>
        <mxCell id="B1KMPoHkWrvq6i-juj9b-17" value="reset the add agent list array" style="whiteSpace=wrap;html=1;rounded=1;" vertex="1" parent="1">
          <mxGeometry x="620" y="30" width="120" height="60" as="geometry" />
        </mxCell>
        <mxCell id="B1KMPoHkWrvq6i-juj9b-19" value="end" style="ellipse;whiteSpace=wrap;html=1;rounded=1;" vertex="1" parent="1">
          <mxGeometry x="620" y="150" width="120" height="40" as="geometry" />
        </mxCell>
      </root>
    </mxGraphModel>
  </diagram>
</mxfile>
